<?xml version="1.0" encoding="utf-8"?>
<!-- Generator: Adobe Illustrator 23.0.1, SVG Export Plug-In . SVG Version: 6.00 Build 0)  -->
<svg version="1.1" id="Layer_1" xmlns="http://www.w3.org/2000/svg" xmlns:xlink="http://www.w3.org/1999/xlink" x="0px" y="0px"
	 viewBox="0 0 94 25.6" style="enable-background:new 0 0 94 25.6;" xml:space="preserve">
<style type="text/css">
	.st0{fill:#14F2D7;}
	.st1{fill:#0A0C0F;}
</style>
<g>
	<g>
		<g>
			<path class="st0" d="M55,17.6h-2.9v-15H55V17.6z"/>
			<path class="st0" d="M64.2,17.6l-0.6-1.5h-0.1c-0.5,0.6-1,1-1.5,1.3s-1.2,0.4-2,0.4c-1,0-1.8-0.3-2.4-0.9
				c-0.6-0.6-0.9-1.4-0.9-2.5c0-1.1,0.4-2,1.2-2.5s2-0.8,3.6-0.9l1.9-0.1v-0.5c0-1.1-0.6-1.6-1.7-1.6c-0.9,0-1.9,0.3-3,0.8l-1-2
				c1.2-0.7,2.6-1,4.1-1c1.4,0,2.6,0.3,3.3,0.9c0.8,0.6,1.2,1.6,1.2,2.9v7.2C66.2,17.6,64.2,17.6,64.2,17.6z M63.3,12.7l-1.1,0
				c-0.8,0-1.5,0.2-1.9,0.5c-0.4,0.3-0.6,0.7-0.6,1.3c0,0.8,0.5,1.2,1.4,1.2c0.7,0,1.2-0.2,1.6-0.6s0.6-0.9,0.6-1.6L63.3,12.7
				L63.3,12.7z"/>
			<path class="st0" d="M74.2,6.7c1.3,0,2.3,0.5,3,1.5c0.7,1,1.1,2.3,1.1,4.1c0,1.8-0.4,3.2-1.1,4.1c-0.7,1-1.8,1.5-3,1.5
				c-1.3,0-2.2-0.5-3-1.4h-0.2l-0.5,1.2h-2.2v-15h2.9v3.5c0,0.4,0,1.2-0.1,2.1h0.1C71.8,7.2,72.8,6.7,74.2,6.7z M73.2,9
				c-0.7,0-1.2,0.2-1.6,0.7c-0.3,0.5-0.5,1.2-0.5,2.2v0.3c0,1.2,0.2,2,0.5,2.5c0.3,0.5,0.9,0.8,1.6,0.8c0.6,0,1.1-0.3,1.4-0.8
				c0.4-0.5,0.5-1.4,0.5-2.4c0-1.1-0.2-1.8-0.5-2.4C74.4,9.3,73.9,9,73.2,9z"/>
			<path class="st0" d="M88.2,14.4c0,1.1-0.4,1.9-1.2,2.5c-0.8,0.6-1.9,0.9-3.4,0.9c-0.8,0-1.4,0-2-0.2s-1.1-0.3-1.6-0.5v-2.4
				c0.5,0.3,1.2,0.5,1.8,0.6c0.7,0.2,1.3,0.3,1.8,0.3c1.1,0,1.6-0.3,1.6-0.9c0-0.2-0.1-0.4-0.2-0.6c-0.1-0.1-0.4-0.3-0.7-0.5
				c-0.3-0.2-0.8-0.4-1.4-0.6c-0.8-0.3-1.4-0.7-1.8-1s-0.7-0.6-0.8-1c-0.2-0.4-0.3-0.8-0.3-1.4c0-1,0.4-1.7,1.1-2.2
				c0.7-0.5,1.8-0.8,3.2-0.8c1.3,0,2.6,0.3,3.8,0.8l-0.9,2.1c-0.5-0.2-1-0.4-1.5-0.6s-0.9-0.2-1.4-0.2c-0.9,0-1.3,0.2-1.3,0.7
				c0,0.3,0.1,0.5,0.4,0.7s0.9,0.5,1.8,0.9c0.8,0.3,1.4,0.7,1.8,1s0.7,0.6,0.9,1C88.1,13.5,88.2,13.9,88.2,14.4z"/>
		</g>
		<g>
			<path class="st1" d="M5.7,17.6H2.8v-15h2.9L5.7,17.6L5.7,17.6z"/>
			<path class="st1" d="M17.6,12.2c0,1.8-0.5,3.1-1.4,4.1c-0.9,1-2.2,1.5-3.8,1.5c-1,0-1.9-0.2-2.7-0.7c-0.8-0.5-1.4-1.1-1.8-2
				c-0.4-0.8-0.6-1.8-0.6-3c0-1.8,0.5-3.1,1.4-4.1c0.9-1,2.2-1.5,3.9-1.5c1,0,1.9,0.2,2.7,0.7c0.8,0.5,1.4,1.1,1.8,1.9
				C17.4,10.1,17.6,11.1,17.6,12.2z M10.1,12.2c0,1.1,0.2,1.9,0.5,2.4c0.4,0.5,0.9,0.8,1.7,0.8c0.8,0,1.3-0.3,1.7-0.8
				c0.3-0.5,0.5-1.3,0.5-2.4c0-1.1-0.2-1.9-0.5-2.4s-0.9-0.8-1.7-0.8c-0.8,0-1.4,0.3-1.7,0.8C10.3,10.4,10.1,11.2,10.1,12.2z"/>
			<path class="st1" d="M28.5,6.9v1.5l-1.7,0.4c0.3,0.5,0.5,1,0.5,1.6c0,1.2-0.4,2-1.2,2.7c-0.8,0.6-1.9,1-3.4,1l-0.5,0l-0.4,0
				c-0.3,0.2-0.5,0.5-0.5,0.8c0,0.4,0.5,0.6,1.6,0.6h1.8c1.2,0,2.1,0.2,2.7,0.8s0.9,1.2,0.9,2.2c0,1.3-0.5,2.2-1.6,2.9s-2.5,1-4.5,1
				c-1.5,0-2.6-0.3-3.4-0.8s-1.2-1.2-1.2-2.2c0-0.7,0.2-1.2,0.6-1.6c0.4-0.4,1-0.8,1.8-0.9c-0.3-0.1-0.6-0.3-0.8-0.6
				c-0.2-0.3-0.3-0.6-0.3-0.9c0-0.4,0.1-0.8,0.4-1s0.6-0.5,1-0.8c-0.6-0.2-1-0.6-1.3-1.2c-0.3-0.5-0.5-1.2-0.5-1.9
				c0-1.2,0.4-2.1,1.1-2.7s1.9-1,3.3-1c0.3,0,0.7,0,1.1,0.1s0.7,0.1,0.8,0.1L28.5,6.9L28.5,6.9z M20.2,19.2c0,0.4,0.2,0.7,0.6,1
				s0.9,0.3,1.6,0.3c1,0,1.9-0.1,2.5-0.4c0.6-0.3,0.9-0.7,0.9-1.2c0-0.4-0.2-0.7-0.5-0.8c-0.4-0.2-0.9-0.2-1.6-0.2h-1.5
				c-0.5,0-1,0.1-1.4,0.4C20.4,18.4,20.2,18.7,20.2,19.2z M21.2,10.4c0,0.6,0.1,1,0.4,1.4s0.7,0.5,1.2,0.5s1-0.2,1.2-0.5
				c0.3-0.3,0.4-0.8,0.4-1.4c0-1.3-0.5-1.9-1.6-1.9C21.8,8.5,21.2,9.1,21.2,10.4z"/>
			<path class="st1" d="M39,12.2c0,1.8-0.5,3.1-1.4,4.1c-0.9,1-2.2,1.5-3.8,1.5c-1,0-1.9-0.2-2.7-0.7s-1.4-1.1-1.8-2
				c-0.4-0.8-0.6-1.8-0.6-3c0-1.8,0.5-3.1,1.4-4.1c0.9-1,2.2-1.5,3.9-1.5c1,0,1.9,0.2,2.7,0.7c0.8,0.5,1.4,1.1,1.8,1.9
				C38.8,10.1,39,11.1,39,12.2z M31.6,12.2c0,1.1,0.2,1.9,0.5,2.4c0.3,0.5,0.9,0.8,1.7,0.8c0.8,0,1.3-0.3,1.7-0.8
				c0.3-0.5,0.5-1.3,0.5-2.4c0-1.1-0.2-1.9-0.5-2.4c-0.3-0.5-0.9-0.8-1.7-0.8c-0.8,0-1.3,0.3-1.7,0.8C31.7,10.4,31.6,11.2,31.6,12.2
				z"/>
			<g>
				<path class="st1" d="M49.1,7.7c-0.7-0.7-1.6-1-2.8-1c-0.7,0-1.4,0.1-2,0.4c-0.6,0.3-1,0.7-1.3,1.2h-0.2l-0.4-1.4h-2.2v10.8h2.9
					v-5.1c0-1.3,0.2-2.2,0.5-2.7s1-0.8,1.8-0.8c0.6,0,1,0.2,1.3,0.6c0.3,0.4,0.4,1,0.4,1.7v4.9l-2.4,1.4H50h0h0v-7
					C50.1,9.4,49.7,8.4,49.1,7.7z"/>
				<path class="st1" d="M46.4,12.1c0-0.4-0.3-0.7-0.7-0.7S45,11.8,45,12.1s0.3,0.7,0.7,0.7C46.1,12.8,46.4,12.5,46.4,12.1z"/>
			</g>
		</g>
	</g>
</g>
</svg>
